<?xml version="1.0" standalone="no"?>
<!DOCTYPE svg PUBLIC "-//W3C//DTD SVG 20010904//EN"
 "http://www.w3.org/TR/2001/REC-SVG-20010904/DTD/svg10.dtd">
<svg version="1.0" xmlns="http://www.w3.org/2000/svg"
 width="144.000000pt" height="135.000000pt" viewBox="0 0 144.000000 135.000000"
 preserveAspectRatio="xMidYMid meet">

<g transform="translate(0.000000,135.000000) scale(0.100000,-0.100000)"
fill="#000000" stroke="none">
<path d="M520 1244 c-208 -41 -370 -184 -394 -351 l-6 -43 50 0 c27 0 107 10
177 22 204 34 375 31 591 -12 204 -40 209 -39 192 48 -26 141 -136 253 -307
313 -57 21 -243 34 -303 23z"/>
<path d="M548 843 c-20 -5 -28 -31 -59 -193 -29 -148 -31 -295 -6 -368 30 -84
91 -167 142 -192 54 -26 152 -25 169 2 16 26 -9 128 -54 228 -60 130 -73 202
-66 345 4 66 9 135 12 153 l6 32 -63 -1 c-35 -1 -72 -3 -81 -6z"/>
<path d="M853 450 c-38 -23 -55 -52 -51 -88 2 -21 12 -30 45 -42 36 -13 40
-18 31 -33 -15 -28 -15 -132 1 -151 22 -26 68 -20 88 11 19 28 24 102 10 139
-6 18 -2 22 33 33 47 14 59 44 36 89 -30 58 -131 80 -193 42z"/>
</g>
</svg>
